<svg xmlns="http://www.w3.org/2000/svg" viewBox="0 0 26.73 31.81"><defs><style>.cls-1{fill:#0ba;}</style></defs><g id="Layer_2" data-name="Layer 2"><g id="Layer_1-2" data-name="Layer 1"><path class="cls-1" d="M13.37,20.35h0a3.82,3.82,0,0,1,3.82,3.82v7.64a0,0,0,0,1,0,0H9.55a0,0,0,0,1,0,0V24.17A3.82,3.82,0,0,1,13.37,20.35Z"/><rect class="cls-1" x="9.55" y="10.81" width="7.64" height="7.64" rx="3.82"/><rect class="cls-1" x="19.09" width="7.64" height="7.64" rx="3.82"/><rect class="cls-1" y="5.73" width="7.64" height="7.64" rx="3.82"/><path class="cls-1" d="M0,14.63H0a7.64,7.64,0,0,1,7.64,7.64v9.55a0,0,0,0,1,0,0h0A7.64,7.64,0,0,1,0,24.17V14.63A0,0,0,0,1,0,14.63Z"/><path class="cls-1" d="M26.73,8.9h0a0,0,0,0,1,0,0V24.17a7.64,7.64,0,0,1-7.64,7.64h0a0,0,0,0,1,0,0V16.53A7.64,7.64,0,0,1,26.73,8.9Z"/></g></g></svg>