<svg xmlns="http://www.w3.org/2000/svg" viewBox="0 0 700 833"><defs><style>.cls-1{fill:#8510d8;}</style></defs><g id="Layer_2" data-name="Layer 2"><g id="Layer_1-2" data-name="Layer 1"><path class="cls-1" d="M350,533h0A100,100,0,0,1,450,633V833a0,0,0,0,1,0,0H250a0,0,0,0,1,0,0V633A100,100,0,0,1,350,533Z"/><rect class="cls-1" x="250" y="283" width="200" height="200" rx="100"/><rect class="cls-1" x="500" width="200" height="200" rx="100"/><rect class="cls-1" y="150" width="200" height="200" rx="100"/><path class="cls-1" d="M0,383H0A200,200,0,0,1,200,583V833a0,0,0,0,1,0,0h0A200,200,0,0,1,0,633V383A0,0,0,0,1,0,383Z"/><path class="cls-1" d="M700,233h0a0,0,0,0,1,0,0V633A200,200,0,0,1,500,833h0a0,0,0,0,1,0,0V433A200,200,0,0,1,700,233Z"/></g></g></svg>